# xmcd
#
# Track frame offsets:
#	150
#	17621
#	38723
#	55598
#	72548
#	90315
#	109710
#	131839
#	151764
#	169662
#	197881
#	220381
#	251506
#
# Disc length: 3664 seconds
# Revision: 0
# Processed by: cddbd v1.5.2PL0 Copyright (c) Steve Scherf et al.
# Submitted via: dBpowerAMP V12.0
#
DISCID=ab0e4e0d
DTITLE=Various Artist - Top 25 Gospel Songs [CD1 of 2)
DYEAR=2012
DGENRE=Gospel
TTITLE0=Mary Mary - Something Big
TTITLE1=Tamela Mann - The Joy Of The Lord
TTITLE2=Trin-I-tee 5:7 - Blessing Me
TTITLE3=Lecrae - Boasting
TTITLE4=G85 - Give It All
TTITLE5=Manifest - One God
TTITLE6=Patrick Dopson - Open The Heavens
TTITLE7=Tommy Walker - You Are Here
TTITLE8=Norman Hutchins - God Is Able
TTITLE9=Dottie Peoples - It's Already Done
TTITLE10=Maranatha! Gospel Choir - The Presence Of The Lord
TTITLE11=Darrell Hines - You Brought Me
TTITLE12=Karen Clark Sheard - We Must Praise
EXTD=
EXTT0=
EXTT1=
EXTT2=
EXTT3=
EXTT4=
EXTT5=
EXTT6=
EXTT7=
EXTT8=
EXTT9=
EXTT10=
EXTT11=
EXTT12=
PLAYORDER=
